<svg width="521" height="150" viewBox="0 0 521 150" fill="none" xmlns="http://www.w3.org/2000/svg">
<path d="M247.2 81.3C247.2 82.8333 247.1 84.3667 246.9 85.9H209.8C210 88.9667 210.833 91.2667 212.3 92.8C213.833 94.2667 215.767 95 218.1 95C221.367 95 223.7 93.5333 225.1 90.6H246C245.133 94.4667 243.433 97.9333 240.9 101C238.433 104 235.3 106.367 231.5 108.1C227.7 109.833 223.5 110.7 218.9 110.7C213.367 110.7 208.433 109.533 204.1 107.2C199.833 104.867 196.467 101.533 194 97.2C191.6 92.8667 190.4 87.7667 190.4 81.9C190.4 76.0333 191.6 70.9667 194 66.7C196.4 62.3667 199.733 59.0333 204 56.7C208.333 54.3667 213.3 53.2 218.9 53.2C224.433 53.2 229.333 54.3333 233.6 56.6C237.867 58.8667 241.2 62.1333 243.6 66.4C246 70.6 247.2 75.5667 247.2 81.3ZM227.2 76.4C227.2 74 226.4 72.1333 224.8 70.8C223.2 69.4 221.2 68.7 218.8 68.7C216.4 68.7 214.433 69.3667 212.9 70.7C211.367 71.9667 210.367 73.8667 209.9 76.4H227.2ZM275.921 53.2C279.721 53.2 283.021 53.9667 285.821 55.5C288.688 57.0333 290.888 59.1 292.421 61.7V53.9H312.021V109.4C312.021 114.667 311.021 119.4 309.021 123.6C307.021 127.867 303.888 131.267 299.621 133.8C295.421 136.333 290.088 137.6 283.621 137.6C274.954 137.6 268.021 135.567 262.821 131.5C257.621 127.433 254.654 121.9 253.921 114.9H273.221C273.621 116.7 274.621 118.1 276.221 119.1C277.821 120.1 279.888 120.6 282.421 120.6C289.088 120.6 292.421 116.867 292.421 109.4V102.2C290.888 104.8 288.688 106.867 285.821 108.4C283.021 109.933 279.721 110.7 275.921 110.7C271.454 110.7 267.388 109.533 263.721 107.2C260.121 104.867 257.254 101.533 255.121 97.2C253.054 92.8 252.021 87.7 252.021 81.9C252.021 76.1 253.054 71.0333 255.121 66.7C257.254 62.3667 260.121 59.0333 263.721 56.7C267.388 54.3667 271.454 53.2 275.921 53.2ZM292.421 81.9C292.421 78.3 291.421 75.4667 289.421 73.4C287.488 71.3333 285.088 70.3 282.221 70.3C279.288 70.3 276.854 71.3333 274.921 73.4C272.988 75.4 272.021 78.2333 272.021 81.9C272.021 85.5 272.988 88.3667 274.921 90.5C276.854 92.5667 279.288 93.6 282.221 93.6C285.088 93.6 287.488 92.5667 289.421 90.5C291.421 88.4333 292.421 85.5667 292.421 81.9ZM359.89 53.4C366.357 53.4 371.49 55.5667 375.29 59.9C379.09 64.1667 380.99 69.9667 380.99 77.3V110H361.39V79.9C361.39 76.7 360.557 74.2 358.89 72.4C357.223 70.5333 354.99 69.6 352.19 69.6C349.257 69.6 346.957 70.5333 345.29 72.4C343.623 74.2 342.79 76.7 342.79 79.9V110H323.19V53.9H342.79V61.9C344.523 59.3667 346.857 57.3333 349.79 55.8C352.723 54.2 356.09 53.4 359.89 53.4ZM401.645 48.7C398.178 48.7 395.378 47.7667 393.245 45.9C391.178 43.9667 390.145 41.5667 390.145 38.7C390.145 35.7667 391.178 33.3333 393.245 31.4C395.378 29.4667 398.178 28.5 401.645 28.5C405.045 28.5 407.778 29.4667 409.845 31.4C411.978 33.3333 413.045 35.7667 413.045 38.7C413.045 41.5667 411.978 43.9667 409.845 45.9C407.778 47.7667 405.045 48.7 401.645 48.7ZM411.345 53.9V110H391.745V53.9H411.345ZM455.606 93.3V110H447.106C432.773 110 425.606 102.9 425.606 88.7V70.2H418.706V53.9H425.606V40.3H445.306V53.9H455.506V70.2H445.306V89C445.306 90.5333 445.64 91.6333 446.306 92.3C447.04 92.9667 448.24 93.3 449.906 93.3H455.606ZM518.196 81.3C518.196 82.8333 518.096 84.3667 517.896 85.9H480.796C480.996 88.9667 481.829 91.2667 483.296 92.8C484.829 94.2667 486.763 95 489.096 95C492.363 95 494.696 93.5333 496.096 90.6H516.996C516.129 94.4667 514.429 97.9333 511.896 101C509.429 104 506.296 106.367 502.496 108.1C498.696 109.833 494.496 110.7 489.896 110.7C484.363 110.7 479.429 109.533 475.096 107.2C470.829 104.867 467.463 101.533 464.996 97.2C462.596 92.8667 461.396 87.7667 461.396 81.9C461.396 76.0333 462.596 70.9667 464.996 66.7C467.396 62.3667 470.729 59.0333 474.996 56.7C479.329 54.3667 484.296 53.2 489.896 53.2C495.429 53.2 500.329 54.3333 504.596 56.6C508.863 58.8667 512.196 62.1333 514.596 66.4C516.996 70.6 518.196 75.5667 518.196 81.3ZM498.196 76.4C498.196 74 497.396 72.1333 495.796 70.8C494.196 69.4 492.196 68.7 489.796 68.7C487.396 68.7 485.429 69.3667 483.896 70.7C482.363 71.9667 481.363 73.8667 480.896 76.4H498.196Z" fill="#0052CC"/>
<circle cx="55.4187" cy="75.4187" r="55.4187" fill="#0052CC"/>
<rect x="28.0786" y="77.266" width="121.921" height="53.5714" rx="26.7857" fill="#0052CC" fill-opacity="0.76"/>
</svg>
