<svg width="707" height="224" viewBox="0 0 707 224" fill="none" xmlns="http://www.w3.org/2000/svg">
<path d="M228.8 82.8V100.05H262.55V122.4H228.8V141.45H267.05V165H199.4V59.25H267.05V82.8H228.8ZM312.628 79.8C318.328 79.8 323.278 80.95 327.478 83.25C331.778 85.55 335.078 88.65 337.378 92.55V80.85H366.778V164.1C366.778 172 365.278 179.1 362.278 185.4C359.278 191.8 354.578 196.9 348.178 200.7C341.878 204.5 333.878 206.4 324.178 206.4C311.178 206.4 300.778 203.35 292.978 197.25C285.178 191.15 280.728 182.85 279.628 172.35H308.578C309.178 175.05 310.678 177.15 313.078 178.65C315.478 180.15 318.578 180.9 322.378 180.9C332.378 180.9 337.378 175.3 337.378 164.1V153.3C335.078 157.2 331.778 160.3 327.478 162.6C323.278 164.9 318.328 166.05 312.628 166.05C305.928 166.05 299.828 164.3 294.328 160.8C288.928 157.3 284.628 152.3 281.428 145.8C278.328 139.2 276.778 131.55 276.778 122.85C276.778 114.15 278.328 106.55 281.428 100.05C284.628 93.55 288.928 88.55 294.328 85.05C299.828 81.55 305.928 79.8 312.628 79.8ZM337.378 122.85C337.378 117.45 335.878 113.2 332.878 110.1C329.978 107 326.378 105.45 322.078 105.45C317.678 105.45 314.028 107 311.128 110.1C308.228 113.1 306.778 117.35 306.778 122.85C306.778 128.25 308.228 132.55 311.128 135.75C314.028 138.85 317.678 140.4 322.078 140.4C326.378 140.4 329.978 138.85 332.878 135.75C335.878 132.65 337.378 128.35 337.378 122.85ZM438.581 80.1C448.281 80.1 455.981 83.35 461.681 89.85C467.381 96.25 470.231 104.95 470.231 115.95V165H440.831V119.85C440.831 115.05 439.581 111.3 437.081 108.6C434.581 105.8 431.231 104.4 427.031 104.4C422.631 104.4 419.181 105.8 416.681 108.6C414.181 111.3 412.931 115.05 412.931 119.85V165H383.531V80.85H412.931V92.85C415.531 89.05 419.031 86 423.431 83.7C427.831 81.3 432.881 80.1 438.581 80.1ZM501.213 73.05C496.013 73.05 491.813 71.65 488.613 68.85C485.513 65.95 483.963 62.35 483.963 58.05C483.963 53.65 485.513 50 488.613 47.1C491.813 44.2 496.013 42.75 501.213 42.75C506.313 42.75 510.413 44.2 513.513 47.1C516.713 50 518.313 53.65 518.313 58.05C518.313 62.35 516.713 65.95 513.513 68.85C510.413 71.65 506.313 73.05 501.213 73.05ZM515.763 80.85V165H486.363V80.85H515.763ZM582.155 139.95V165H569.405C547.905 165 537.155 154.35 537.155 133.05V105.3H526.805V80.85H537.155V60.45H566.705V80.85H582.005V105.3H566.705V133.5C566.705 135.8 567.205 137.45 568.205 138.45C569.305 139.45 571.105 139.95 573.605 139.95H582.155ZM676.04 121.95C676.04 124.25 675.89 126.55 675.59 128.85H619.94C620.24 133.45 621.49 136.9 623.69 139.2C625.99 141.4 628.89 142.5 632.39 142.5C637.29 142.5 640.79 140.3 642.89 135.9H674.24C672.94 141.7 670.39 146.9 666.59 151.5C662.89 156 658.19 159.55 652.49 162.15C646.79 164.75 640.49 166.05 633.59 166.05C625.29 166.05 617.89 164.3 611.39 160.8C604.99 157.3 599.94 152.3 596.24 145.8C592.64 139.3 590.84 131.65 590.84 122.85C590.84 114.05 592.64 106.45 596.24 100.05C599.84 93.55 604.84 88.55 611.24 85.05C617.74 81.55 625.19 79.8 633.59 79.8C641.89 79.8 649.24 81.5 655.64 84.9C662.04 88.3 667.04 93.2 670.64 99.6C674.24 105.9 676.04 113.35 676.04 121.95ZM646.04 114.6C646.04 111 644.84 108.2 642.44 106.2C640.04 104.1 637.04 103.05 633.44 103.05C629.84 103.05 626.89 104.05 624.59 106.05C622.29 107.95 620.79 110.8 620.09 114.6H646.04Z" fill="#3182CE"/>
<circle cx="55.4187" cy="109.419" r="55.4187" fill="#3182CE"/>
<rect x="28.0786" y="111.266" width="121.921" height="53.5714" rx="26.7857" fill="#3182CE" fill-opacity="0.76"/>
</svg>
